<svg id="Layer_1" data-name="Layer 1" xmlns="http://www.w3.org/2000/svg" viewBox="0 0 25 25"><defs><style>.cls-1{fill:#fff;}</style></defs><title>help</title><path class="cls-1" d="M6.26,3.56a7.14,7.14,0,0,0-.64,1.3c-.38,1-.76,2.53-.09,3.51a1.86,1.86,0,0,0,1.29.75,2.14,2.14,0,0,0,1.81-.49c.25-.25.21-.36.69-1.39a8.54,8.54,0,0,1,1.14-2,2.94,2.94,0,0,1,1.18-.77,4.18,4.18,0,0,1,2.66.26,2.81,2.81,0,0,1,1.31,1.61,3.67,3.67,0,0,1,0,2.25,3.82,3.82,0,0,1-.83,1.28,31.08,31.08,0,0,1-2.32,2.2,6.8,6.8,0,0,0-1.85,2.46,4.13,4.13,0,0,0-.37,2,2.72,2.72,0,0,0,.74,1.77,2,2,0,0,0,2,.32,2.28,2.28,0,0,0,1-.75c.38-.53.23-.81.64-1.66A5.54,5.54,0,0,1,15.34,15a5.13,5.13,0,0,1,1.11-1,13,13,0,0,0,2.5-2.3,6.92,6.92,0,0,0,1.43-3.11,7.51,7.51,0,0,0-.28-3.58,6.72,6.72,0,0,0-2-3A6.65,6.65,0,0,0,14.69.56,9,9,0,0,0,10.2.72,8.71,8.71,0,0,0,7.7,2,5.67,5.67,0,0,0,6.26,3.56Z"/><circle class="cls-1" cx="12.29" cy="22.78" r="2.03"/></svg>